<svg width="16" height="16" viewBox="0 0 16 16" fill="none" xmlns="http://www.w3.org/2000/svg">
<path d="M13.6134 3.05335C13.2789 2.71773 12.8815 2.45144 12.4439 2.26974C12.0064 2.08804 11.5372 1.99451 11.0634 1.99451C10.5896 1.99451 10.1204 2.08804 9.68284 2.26974C9.24526 2.45144 8.84784 2.71773 8.51339 3.05335L8.00006 3.57335L7.48672 3.05335C7.15227 2.71773 6.75486 2.45144 6.31727 2.26974C5.87968 2.08804 5.41053 1.99451 4.93672 1.99451C4.46291 1.99451 3.99376 2.08804 3.55618 2.26974C3.11859 2.45144 2.72118 2.71773 2.38672 3.05335C0.973391 4.46668 0.886724 6.85335 2.66672 8.66668L8.00006 14L13.3334 8.66668C15.1134 6.85335 15.0267 4.46668 13.6134 3.05335Z" stroke="#1E293B" stroke-width="1.3" stroke-linecap="round" stroke-linejoin="round"/>
<path d="M7.99997 3.57333L5.9133 5.66667C5.64949 5.93263 5.50146 6.29206 5.50146 6.66667C5.50146 7.04127 5.64949 7.4007 5.9133 7.66667C6.17926 7.93047 6.53869 8.0785 6.9133 8.0785C7.28791 8.0785 7.64734 7.93047 7.9133 7.66667L9.41997 6.19333C9.79441 5.82286 10.2999 5.61505 10.8266 5.61505C11.3534 5.61505 11.8589 5.82286 12.2333 6.19333L13.8333 7.79333" stroke="#1E293B" stroke-width="1.3" stroke-linecap="round" stroke-linejoin="round"/>
<path d="M12 9.99999L10.6666 8.66666" stroke="#1E293B" stroke-width="1.3" stroke-linecap="round" stroke-linejoin="round"/>
<path d="M9.99996 12L8.66663 10.6667" stroke="#1E293B" stroke-width="1.3" stroke-linecap="round" stroke-linejoin="round"/>
</svg>
