<svg width="400" height="400" viewBox="0 0 400 400" fill="none" xmlns="http://www.w3.org/2000/svg">
<rect width="400" height="400" fill="white"/>
<path d="M172.424 264.091V262.364C172.616 244.035 174.535 229.449 178.182 218.606C181.828 207.763 187.01 198.982 193.727 192.265C200.444 185.548 208.505 179.359 217.909 173.697C223.571 170.242 228.657 166.164 233.167 161.462C237.677 156.664 241.227 151.146 243.818 144.909C246.505 138.672 247.848 131.763 247.848 124.182C247.848 114.778 245.641 106.621 241.227 99.7121C236.813 92.803 230.912 87.4773 223.523 83.7348C216.134 79.9924 207.929 78.1212 198.909 78.1212C191.04 78.1212 183.46 79.7525 176.167 83.0151C168.874 86.2778 162.78 91.4116 157.886 98.4167C152.992 105.422 150.162 114.586 149.394 125.909H113.121C113.889 109.596 118.111 95.6338 125.788 84.0227C133.561 72.4116 143.78 63.5353 156.447 57.3939C169.21 51.2525 183.364 48.1818 198.909 48.1818C215.798 48.1818 230.48 51.5404 242.955 58.2576C255.525 64.9747 265.217 74.1869 272.03 85.8939C278.939 97.601 282.394 110.939 282.394 125.909C282.394 136.465 280.763 146.013 277.5 154.553C274.333 163.093 269.727 170.722 263.682 177.439C257.732 184.157 250.535 190.106 242.091 195.288C233.646 200.566 226.881 206.131 221.795 211.985C216.71 217.742 213.015 224.604 210.712 232.568C208.409 240.533 207.162 250.465 206.97 262.364V264.091H172.424ZM190.848 349.303C183.747 349.303 177.654 346.76 172.568 341.674C167.482 336.588 164.939 330.495 164.939 323.394C164.939 316.293 167.482 310.199 172.568 305.114C177.654 300.028 183.747 297.485 190.848 297.485C197.949 297.485 204.043 300.028 209.129 305.114C214.215 310.199 216.758 316.293 216.758 323.394C216.758 328.096 215.558 332.414 213.159 336.348C210.856 340.283 207.737 343.449 203.803 345.848C199.965 348.152 195.646 349.303 190.848 349.303Z" fill="#1E293B"/>
</svg>
